#!OML:ASF I:\Actors\actors\Patient Classification 1\Patient 1\Session 1\Subject1.ASF
:FULLY-SPECIFIED
:DEGREES
459
root -0.151406 17.7839 8.30239 13.3724 -11.3877 -6.87983
lowerback 8.86413 -6.63703 -4.55794
upperback -8.33293 -8.96941 7.71769
thorax -12.1614 -3.50032 12.8709
lowerneck -17.7285 2.39676 3.90692
upperneck 18.6777 -1.29552 14.9378
head 9.00224 1.22966 4.33101
rclavicle -4.52981e-014 -1.66979e-014
rhumerus -20.9079 47.5755 -52.0559
rradius 128.386
rwrist -9.80259
rhand 12.451 -24.6359
rfingers 7.12502
rthumb 37.4471 -50.5835
lclavicle -4.52981e-014 -1.66979e-014
lhumerus 49.0795 -18.019 16.8665
lradius 28.6789
lwrist -349.605
lhand -17.4944 -25.0546
lfingers 7.12502
lthumb 8.75824 4.74364
rfemur -10.9766 22.5299 18.5989
rtibia 4.34111
rfoot -8.88909 -17.1665
rtoes -6.96021
lfemur -1.09233 -30.6709 -13.0038
ltibia -0.595038
lfoot -22.0238 47.1343
ltoes 14.1831
460
root -0.124987 17.7703 8.3202 13.2392 -11.4145 -6.76117
lowerback 8.78284 -6.97461 -3.68751
upperback -8.24897 -9.28297 7.81753
thorax -12.0502 -3.74055 12.5026
lowerneck -17.158 2.70594 4.21312
upperneck 17.8766 -0.607269 14.2045
head 8.5651 1.43194 4.05946
rclavicle -9.48451e-014 1.11319e-013
rhumerus -21.6551 48.4477 -52.781
rradius 128.569
rwrist -9.61954
rhand 10.3282 -25.0516
rfingers 7.12502
rthumb 35.4375 -51.5044
lclavicle -9.48451e-014 1.11319e-013
lhumerus 44.5817 -13.953 27.5664
lradius 28.0058
lwrist -348.893
lhand -17.3786 -25.4165
lfingers 7.12502
lthumb 8.87002 4.3771
rfemur -10.8968 22.9096 18.379
rtibia 4.56205
rfoot -9.24016 -17.4769
rtoes -6.481
lfemur -0.982706 -30.1599 -13.3099
ltibia -0.558252
lfoot -21.3848 46.7466
ltoes 13.5084
461
root -0.101341 17.7469 8.34097 12.9876 -12.0628 -6.70183
lowerback 8.8368 -6.94535 -2.52667
upperback -8.2108 -9.07941 7.58024
thorax -12.296 -3.73644 11.5617
lowerneck -16.5799 2.7096 4.1378
upperneck 17.4211 -0.458691 14.1894
head 8.2931 1.44767 4.05082
rclavicle -1.38404e-013 4.69132e-014
rhumerus -23.481 47.6728 -54.0855
rradius 128.61
rwrist -9.21303
rhand 12.2942 -24.7437
rfingers 7.12502
rthumb 37.299 -50.7302
lclavicle -1.38404e-013 4.69132e-014
lhumerus 40.2039 -13.7782 31.4918
lradius 33.7681
lwrist -337.076
lhand -14.1555 -24.505
lfingers 7.12502
lthumb 11.9792 5.1322
rfemur -10.7869 23.5596 18.2184
rtibia 4.85981
rfoot -9.4376 -17.4279
rtoes -6.4535
lfemur -0.454557 -29.6514 -13.8239
ltibia -0.55334
lfoot -21.8124 46.7004
ltoes 13.9607
462
root -0.0760733 17.716 8.37333 12.9838 -13.381 -6.90019
lowerback 8.67113 -6.66102 -1.0307
upperback -8.23432 -8.49205 7.2105
thorax -12.611 -3.58331 10.2055
lowerneck -16.2047 2.6035 4.07577
upperneck 17.4534 -0.61353 14.4236
head 8.24761 1.37962 4.11505
rclavicle -3.52346e-014 2.22639e-014
rhumerus -26.4305 46.7952 -56.1981
rradius 129.074
rwrist -9.88973
rhand 12.3543 -24.8466
rfingers 7.12502
rthumb 37.3557 -50.8183
lclavicle -3.52346e-014 2.22639e-014
lhumerus 35.6394 -15.4501 32.6515
lradius 41.6301
lwrist -329.488
lhand -11.472 -23.7983
lfingers 7.12502
lthumb 14.5658 5.67025
rfemur -11.0295 24.0278 18.2066
rtibia 5.26762
rfoot -9.43419 -16.5252
rtoes -7.14312
lfemur 0.265911 -29.2654 -14.2608
ltibia -0.738246
lfoot -23.0568 47.2979
ltoes 15.0387
463
root -0.0480581 17.6819 8.42017 13.1431 -15.3509 -7.03292
lowerback 8.29465 -6.21958 0.249677
upperback -8.28691 -7.74112 6.82269
thorax -12.7924 -3.35049 8.89187
lowerneck -15.9037 2.67848 4.34659
upperneck 17.847 -0.619356 14.4465
head 8.3304 1.40684 4.08512
rclavicle 2.77305e-014 8.26944e-014
rhumerus -29.6878 46.2314 -58.5235
rradius 129.609
rwrist -10.6467
rhand 10.4717 -25.0034
rfingers 7.12502
rthumb 35.5736 -51.4235
lclavicle 2.77305e-014 8.26944e-014
lhumerus 30.6742 -17.7204 32.5123
lradius 49.8851
lwrist -329.777
lhand -12.3863 -25.5091
lfingers 7.12502
lthumb 13.6847 4.02101
rfemur -11.5982 24.1045 17.9696
rtibia 5.76968
rfoot -9.34982 -14.6568
rtoes -8.24603
lfemur 1.18702 -28.9796 -15.0407
ltibia -1.13448
lfoot -24.8828 48.4932
ltoes 16.6132
464
root -0.02358 17.655 8.47667 13.2159 -17.6841 -6.96745
lowerback 7.97034 -5.71366 1.02317
upperback -8.31682 -6.97981 6.51538
thorax -12.865 -3.07216 7.95148
lowerneck -15.4791 2.91361 4.64016
upperneck 18.184 -0.367235 14.3842
head 8.35469 1.54161 4.04622
rclavicle 5.1684e-015 2.22639e-014
rhumerus -31.9229 45.1511 -59.7272
rradius 129.609
rwrist -9.37093
rhand 12.2651 -24.7553
rfingers 7.12502
rthumb 37.2714 -50.7491
lclavicle 5.1684e-015 2.22639e-014
lhumerus 25.4929 -19.6839 32.152
lradius 58.5921
lwrist -331.103
lhand -15.349 -27.4444
lfingers 7.12502
lthumb 10.8281 2.25646
rfemur -12.1895 24.1363 17.4902
rtibia 6.31293
rfoot -9.33787 -12.3971
rtoes -9.09029
lfemur 2.28483 -28.7856 -16.257
ltibia -1.50309
lfoot -27.5851 49.8439
ltoes 18.9986
465
root -0.0026392 17.6406 8.53236 13.3991 -20.1774 -7.07913
lowerback 7.6874 -5.16992 1.6234
upperback -8.23753 -6.18141 6.4013
thorax -12.7697 -2.75918 7.3085
lowerneck -15.1953 3.23772 4.88017
upperneck 18.4456 0.0148917 14.3495
head 8.37222 1.73773 4.04095
rclavicle 2.18166e-014 -5.96354e-014
rhumerus -33.46 44.4022 -60.3064
rradius 129.61
rwrist -8.48532
rhand 11.9249 -24.4115
rfingers 7.12502
rthumb 36.9497 -50.489
lclavicle 2.18166e-014 -5.96354e-014
lhumerus 20.3838 -20.3224 32.2391
lradius 68.0382
lwrist -327.936
lhand -12.7487 -26.312
lfingers 7.12502
lthumb 13.3354 3.24129
rfemur -13.0239 24.3435 17.1296
rtibia 7.0624
rfoot -9.36187 -10.0378
rtoes -9.69412
lfemur 3.21725 -28.4987 -17.2518
ltibia -1.73123
lfoot -30.5882 51.1558
ltoes 21.3407
466
root 0.0162661 17.6317 8.595 13.8637 -22.8303 -7.40974
lowerback 7.13761 -4.52648 2.36104
upperback -8.13455 -5.24964 6.31174
thorax -12.4844 -2.40112 6.56054
lowerneck -14.6654 3.51698 5.14601
upperneck 18.3569 0.365027 14.4983
head 8.23077 1.90804 4.0689
rclavicle -6.65929e-015 4.69132e-014
rhumerus -34.8987 43.6219 -60.7949
rradius 129.646
rwrist -8.16564
rhand 9.62201 -23.407
rfingers 7.12502
rthumb 34.7677 -50.0169
lclavicle -6.65929e-015 4.69132e-014
lhumerus 15.4992 -19.9475 32.7585
lradius 77.9167
lwrist -322.615
lhand -10.8943 -27.1293
lfingers 7.12502
lthumb 15.1223 2.29826
rfemur -14.1477 24.6512 16.8636
rtibia 7.89367
rfoot -9.38671 -7.49971
rtoes -10.012
lfemur 4.01384 -28.2802 -18.0289
ltibia -2.06793
lfoot -33.8097 52.6877
ltoes 23.5184
467
root 0.0297822 17.622 8.66413 14.4811 -25.4334 -7.64931
lowerback 6.57208 -3.86926 3.04547
upperback -8.26581 -4.31941 6.12807
thorax -12.4362 -2.03369 5.77386
lowerneck -13.8892 3.52641 4.9209
upperneck 18.1758 0.375987 15.2152
head 8.0268 1.92058 4.32213
rclavicle 6.47044e-014 1.51076e-014
rhumerus -36.9874 42.9308 -61.8161
rradius 129.742
rwrist -8.57357
rhand 9.2041 -23.4481
rfingers 7.12502
rthumb 34.3711 -50.1488
lclavicle 6.47044e-014 1.51076e-014
lhumerus 10.7231 -18.8262 33.7096
lradius 87.241
lwrist -321.972
lhand -8.35715 -26.6406
lfingers 7.12502
lthumb 17.5652 2.58595
rfemur -15.3425 25.0177 16.4078
rtibia 8.51853
rfoot -9.38636 -5.10347
rtoes -10.096
lfemur 4.60735 -28.3499 -18.871
ltibia -2.42948
lfoot -37.6953 54.2115
ltoes 26.0264
468
root 0.0392265 17.61 8.73161 15.0944 -27.6972 -7.80302
lowerback 6.06007 -3.34569 3.58884
upperback -8.47162 -3.59132 5.93116
thorax -12.4583 -1.75002 5.10561
lowerneck -13.3095 3.61771 4.92038
upperneck 18.6469 0.308713 15.9801
head 8.0893 1.95944 4.58191
rclavicle -9.65597e-014 6.52014e-014
rhumerus -39.1057 42.375 -63.026
rradius 129.757
rwrist -9.51043
rhand 10.4581 -24.7179
rfingers 7.12502
rthumb 35.5607 -51.1412
lclavicle -9.65597e-014 6.52014e-014
lhumerus 6.21406 -17.2405 34.6447
lradius 96.1506
lwrist -321.777
lhand -8.0002 -26.507
lfingers 7.12502
lthumb 17.9086 2.68843
rfemur -16.3676 25.362 15.8896
rtibia 8.83473
rfoot -9.35267 -3.12577
rtoes -10.2168
lfemur 4.96268 -28.5197 -19.6583
ltibia -2.64951
lfoot -41.6302 55.3554
ltoes 28.3514
469
root 0.0437998 17.5953 8.79232 15.5778 -29.5115 -7.94847
lowerback 5.63002 -2.93938 4.07165
upperback -8.60889 -3.03268 5.71741
thorax -12.4217 -1.54382 4.48639
lowerneck -12.745 3.53456 4.73268
upperneck 18.7574 0.0953153 16.7489
head 8.03914 1.89325 4.84476
rclavicle 3.98066e-014 1.19271e-014
rhumerus -40.8457 41.5592 -63.9593
rradius 129.615
rwrist -9.97255
rhand 8.78715 -22.9796
rfingers 7.12502
rthumb 33.9751 -49.7689
lclavicle 3.98066e-014 1.19271e-014
lhumerus 2.39131 -15.0496 35.2542
lradius 104.591
lwrist -320.67
lhand -7.12897 -26.1066
lfingers 7.12502
lthumb 18.7468 3.01008
rfemur -17.0485 25.7766 15.4932
rtibia 8.90021
rfoot -9.30912 -1.71073
rtoes -9.98786
lfemur 5.3098 -28.7533 -20.3494
ltibia -2.82666
lfoot -45.0794 56.1923
ltoes 30.172
